Genre:Action | Adventure
Language:English  http://www.imdb.com/title/tt1446072/
Source:.Bluray.720p.DTS.x264-CHD


Format : Matroska
File size : 1.56 GiB
Duration : 1h 25mn
Overall bit rate : 2 597 Kbps


Video
Format settings, CABAC : Yes
Format settings, ReFrames : 4 frames
Format settings, GOP : M=1, N=3
Codec ID : V_MPEG4/ISO/AVC
Duration : 1h 25mn
Bit rate : 2 200 Kbps
Width : 1 280 pixels
Height : 544 pixels
Display aspect ratio : 2.35:1
Frame rate mode : Variable
Frame rate : 23.976 fps
Color space : YUV
Chroma subsampling : 4:2:0
Bit depth : 8 bits
Scan type : Progressive
Bits/(Pixel*Frame) : 0.132
Stream size : 1.30 GiB (83%)
Writing library : x264 core 106 r1732 b20059a

Audio
ID : 2
Format : AC-3
Format/Info : Audio Coding 3
Mode extension : CM (complete main)
Codec ID : A_AC3
Duration : 1h 25mn
Bit rate mode : Constant
Bit rate : 384 Kbps
Channel(s) : 6 channels
Channel positions : Front: L C R, Side: L R, LFE
Sampling rate : 48.0 KHz
Bit depth : 16 bits
Video delay : -1mn 5s
Stream size : 236 MiB (15%)
Language : English


Plot:
Secret Ops agent Marcus is sent to Detroit to take out an arms dealer and the head of the hedge fund that is financing him. His CIA backup has other plans and turns on him and it's a fight to survive in a hospital.
 
http://shareimage.org/images/cae0ovlkpnubnpb1vho.png 
http://shareimage.org/images/3tj95y0mb49l4lacn48r.png 
http://shareimage.org/images/ciwm9m3l0bsq9t6fbh61.png